<?xml version="1.0" encoding="UTF-8" standalone="no"?>
<!DOCTYPE svg PUBLIC "-//W3C//DTD SVG 1.1//EN"
 "http://www.w3.org/Graphics/SVG/1.1/DTD/svg11.dtd">
<!-- Generated by graphviz version 2.28.0 (20171202.0115)
 -->
<!-- Title: snakemake_dag Pages: 1 -->
<svg width="755pt" height="410pt"
 viewBox="0.00 0.00 755.00 410.00" xmlns="http://www.w3.org/2000/svg" xmlns:xlink="http://www.w3.org/1999/xlink">
<g id="graph1" class="graph" transform="scale(1 1) rotate(0) translate(4 406)">
<title>snakemake_dag</title>
<polygon fill="white" stroke="white" points="-4,5 -4,-406 752,-406 752,5 -4,5"/>
<!-- 0 -->
<g id="node1" class="node"><title>0</title>
<polyline fill="none" stroke="#566bd8" stroke-width="2" points="121,-36 27,-36 "/>
<path fill="none" stroke="#566bd8" stroke-width="2" d="M27,-36C21,-36 15,-30 15,-24"/>
<polyline fill="none" stroke="#566bd8" stroke-width="2" points="15,-24 15,-12 "/>
<path fill="none" stroke="#566bd8" stroke-width="2" d="M15,-12C15,-6 21,-0 27,-0"/>
<polyline fill="none" stroke="#566bd8" stroke-width="2" points="27,-0 121,-0 "/>
<path fill="none" stroke="#566bd8" stroke-width="2" d="M121,-0C127,-0 133,-6 133,-12"/>
<polyline fill="none" stroke="#566bd8" stroke-width="2" points="133,-12 133,-24 "/>
<path fill="none" stroke="#566bd8" stroke-width="2" d="M133,-24C133,-30 127,-36 121,-36"/>
<text text-anchor="middle" x="74" y="-15.5" font-family="sans" font-size="10.00">anno_motif_analysis</text>
</g>
<!-- 1 -->
<g id="node2" class="node"><title>1</title>
<polyline fill="none" stroke="#78d856" stroke-width="2" points="131,-108 17,-108 "/>
<path fill="none" stroke="#78d856" stroke-width="2" d="M17,-108C11,-108 5,-102 5,-96"/>
<polyline fill="none" stroke="#78d856" stroke-width="2" points="5,-96 5,-84 "/>
<path fill="none" stroke="#78d856" stroke-width="2" d="M5,-84C5,-78 11,-72 17,-72"/>
<polyline fill="none" stroke="#78d856" stroke-width="2" points="17,-72 131,-72 "/>
<path fill="none" stroke="#78d856" stroke-width="2" d="M131,-72C137,-72 143,-78 143,-84"/>
<polyline fill="none" stroke="#78d856" stroke-width="2" points="143,-84 143,-96 "/>
<path fill="none" stroke="#78d856" stroke-width="2" d="M143,-96C143,-102 137,-108 131,-108"/>
<text text-anchor="middle" x="74" y="-87.5" font-family="sans" font-size="10.00">anno_filter_peak_fc_pval</text>
</g>
<!-- 1&#45;&gt;0 -->
<g id="edge2" class="edge"><title>1&#45;&gt;0</title>
<path fill="none" stroke="grey" stroke-width="2" d="M74,-71.6966C74,-63.9827 74,-54.7125 74,-46.1124"/>
<polygon fill="grey" stroke="grey" points="77.5001,-46.1043 74,-36.1043 70.5001,-46.1044 77.5001,-46.1043"/>
</g>
<!-- 2 -->
<g id="node3" class="node"><title>2</title>
<polyline fill="none" stroke="#b6d856" stroke-width="2" points="185.5,-180 94.5,-180 "/>
<path fill="none" stroke="#b6d856" stroke-width="2" d="M94.5,-180C88.5,-180 82.5,-174 82.5,-168"/>
<polyline fill="none" stroke="#b6d856" stroke-width="2" points="82.5,-168 82.5,-156 "/>
<path fill="none" stroke="#b6d856" stroke-width="2" d="M82.5,-156C82.5,-150 88.5,-144 94.5,-144"/>
<polyline fill="none" stroke="#b6d856" stroke-width="2" points="94.5,-144 185.5,-144 "/>
<path fill="none" stroke="#b6d856" stroke-width="2" d="M185.5,-144C191.5,-144 197.5,-150 197.5,-156"/>
<polyline fill="none" stroke="#b6d856" stroke-width="2" points="197.5,-156 197.5,-168 "/>
<path fill="none" stroke="#b6d856" stroke-width="2" d="M197.5,-168C197.5,-174 191.5,-180 185.5,-180"/>
<text text-anchor="middle" x="140" y="-159.5" font-family="sans" font-size="10.00">call_compress_peak</text>
</g>
<!-- 2&#45;&gt;1 -->
<g id="edge4" class="edge"><title>2&#45;&gt;1</title>
<path fill="none" stroke="grey" stroke-width="2" d="M123.685,-143.697C115.693,-135.22 105.928,-124.864 97.1779,-115.583"/>
<polygon fill="grey" stroke="grey" points="99.5337,-112.979 90.1269,-108.104 94.4405,-117.781 99.5337,-112.979"/>
</g>
<!-- 16 -->
<g id="node17" class="node"><title>16</title>
<polyline fill="none" stroke="#5692d8" stroke-width="2" points="238.25,-108 173.75,-108 "/>
<path fill="none" stroke="#5692d8" stroke-width="2" d="M173.75,-108C167.75,-108 161.75,-102 161.75,-96"/>
<polyline fill="none" stroke="#5692d8" stroke-width="2" points="161.75,-96 161.75,-84 "/>
<path fill="none" stroke="#5692d8" stroke-width="2" d="M161.75,-84C161.75,-78 167.75,-72 173.75,-72"/>
<polyline fill="none" stroke="#5692d8" stroke-width="2" points="173.75,-72 238.25,-72 "/>
<path fill="none" stroke="#5692d8" stroke-width="2" d="M238.25,-72C244.25,-72 250.25,-78 250.25,-84"/>
<polyline fill="none" stroke="#5692d8" stroke-width="2" points="250.25,-84 250.25,-96 "/>
<path fill="none" stroke="#5692d8" stroke-width="2" d="M250.25,-96C250.25,-102 244.25,-108 238.25,-108"/>
<text text-anchor="middle" x="206" y="-87.5" font-family="sans" font-size="10.00">anno_annotate</text>
</g>
<!-- 2&#45;&gt;16 -->
<g id="edge34" class="edge"><title>2&#45;&gt;16</title>
<path fill="none" stroke="grey" stroke-width="2" d="M156.315,-143.697C164.307,-135.22 174.072,-124.864 182.822,-115.583"/>
<polygon fill="grey" stroke="grey" points="185.559,-117.781 189.873,-108.104 180.466,-112.979 185.559,-117.781"/>
</g>
<!-- 3 -->
<g id="node4" class="node"><title>3</title>
<polyline fill="none" stroke="#d8d356" stroke-width="2" points="177.25,-252 102.75,-252 "/>
<path fill="none" stroke="#d8d356" stroke-width="2" d="M102.75,-252C96.75,-252 90.75,-246 90.75,-240"/>
<polyline fill="none" stroke="#d8d356" stroke-width="2" points="90.75,-240 90.75,-228 "/>
<path fill="none" stroke="#d8d356" stroke-width="2" d="M90.75,-228C90.75,-222 96.75,-216 102.75,-216"/>
<polyline fill="none" stroke="#d8d356" stroke-width="2" points="102.75,-216 177.25,-216 "/>
<path fill="none" stroke="#d8d356" stroke-width="2" d="M177.25,-216C183.25,-216 189.25,-222 189.25,-228"/>
<polyline fill="none" stroke="#d8d356" stroke-width="2" points="189.25,-228 189.25,-240 "/>
<path fill="none" stroke="#d8d356" stroke-width="2" d="M189.25,-240C189.25,-246 183.25,-252 177.25,-252"/>
<text text-anchor="middle" x="140" y="-231.5" font-family="sans" font-size="10.00">call_norm_peaks</text>
</g>
<!-- 3&#45;&gt;2 -->
<g id="edge6" class="edge"><title>3&#45;&gt;2</title>
<path fill="none" stroke="grey" stroke-width="2" d="M140,-215.697C140,-207.983 140,-198.712 140,-190.112"/>
<polygon fill="grey" stroke="grey" points="143.5,-190.104 140,-180.104 136.5,-190.104 143.5,-190.104"/>
</g>
<!-- 4 -->
<g id="node5" class="node"><title>4</title>
<polyline fill="none" stroke="#88d856" stroke-width="2" points="254,-324 12,-324 "/>
<path fill="none" stroke="#88d856" stroke-width="2" d="M12,-324C6,-324 0,-318 0,-312"/>
<polyline fill="none" stroke="#88d856" stroke-width="2" points="0,-312 0,-300 "/>
<path fill="none" stroke="#88d856" stroke-width="2" d="M0,-300C0,-294 6,-288 12,-288"/>
<polyline fill="none" stroke="#88d856" stroke-width="2" points="12,-288 254,-288 "/>
<path fill="none" stroke="#88d856" stroke-width="2" d="M254,-288C260,-288 266,-294 266,-300"/>
<polyline fill="none" stroke="#88d856" stroke-width="2" points="266,-300 266,-312 "/>
<path fill="none" stroke="#88d856" stroke-width="2" d="M266,-312C266,-318 260,-324 254,-324"/>
<text text-anchor="middle" x="133" y="-309" font-family="sans" font-size="10.00">call_count_read_num</text>
<text text-anchor="middle" x="133" y="-298" font-family="sans" font-size="10.00">sample_label: Dan_multiplex1_K562_rep1_RBFOX2</text>
</g>
<!-- 4&#45;&gt;3 -->
<g id="edge8" class="edge"><title>4&#45;&gt;3</title>
<path fill="none" stroke="grey" stroke-width="2" d="M134.73,-287.697C135.502,-279.983 136.429,-270.712 137.289,-262.112"/>
<polygon fill="grey" stroke="grey" points="140.777,-262.403 138.29,-252.104 133.812,-261.706 140.777,-262.403"/>
</g>
<!-- 5 -->
<g id="node6" class="node"><title>5</title>
<polyline fill="none" stroke="#d8ac56" stroke-width="2" points="538,-324 296,-324 "/>
<path fill="none" stroke="#d8ac56" stroke-width="2" d="M296,-324C290,-324 284,-318 284,-312"/>
<polyline fill="none" stroke="#d8ac56" stroke-width="2" points="284,-312 284,-300 "/>
<path fill="none" stroke="#d8ac56" stroke-width="2" d="M284,-300C284,-294 290,-288 296,-288"/>
<polyline fill="none" stroke="#d8ac56" stroke-width="2" points="296,-288 538,-288 "/>
<path fill="none" stroke="#d8ac56" stroke-width="2" d="M538,-288C544,-288 550,-294 550,-300"/>
<polyline fill="none" stroke="#d8ac56" stroke-width="2" points="550,-300 550,-312 "/>
<path fill="none" stroke="#d8ac56" stroke-width="2" d="M550,-312C550,-318 544,-324 538,-324"/>
<text text-anchor="middle" x="417" y="-309" font-family="sans" font-size="10.00">call_clipper</text>
<text text-anchor="middle" x="417" y="-298" font-family="sans" font-size="10.00">sample_label: Dan_multiplex1_K562_rep1_RBFOX2</text>
</g>
<!-- 5&#45;&gt;3 -->
<g id="edge10" class="edge"><title>5&#45;&gt;3</title>
<path fill="none" stroke="grey" stroke-width="2" d="M349.592,-287.966C303.588,-276.34 243.226,-261.086 199.1,-249.935"/>
<polygon fill="grey" stroke="grey" points="199.933,-246.536 189.38,-247.479 198.218,-253.322 199.933,-246.536"/>
</g>
<!-- 7 -->
<g id="node8" class="node"><title>7</title>
<polyline fill="none" stroke="#56c1d8" stroke-width="2" points="349.25,-252 266.75,-252 "/>
<path fill="none" stroke="#56c1d8" stroke-width="2" d="M266.75,-252C260.75,-252 254.75,-246 254.75,-240"/>
<polyline fill="none" stroke="#56c1d8" stroke-width="2" points="254.75,-240 254.75,-228 "/>
<path fill="none" stroke="#56c1d8" stroke-width="2" d="M254.75,-228C254.75,-222 260.75,-216 266.75,-216"/>
<polyline fill="none" stroke="#56c1d8" stroke-width="2" points="266.75,-216 349.25,-216 "/>
<path fill="none" stroke="#56c1d8" stroke-width="2" d="M349.25,-216C355.25,-216 361.25,-222 361.25,-228"/>
<polyline fill="none" stroke="#56c1d8" stroke-width="2" points="361.25,-228 361.25,-240 "/>
<path fill="none" stroke="#56c1d8" stroke-width="2" d="M361.25,-240C361.25,-246 355.25,-252 349.25,-252"/>
<text text-anchor="middle" x="308" y="-231.5" font-family="sans" font-size="10.00">anno_filter_clipper</text>
</g>
<!-- 5&#45;&gt;7 -->
<g id="edge14" class="edge"><title>5&#45;&gt;7</title>
<path fill="none" stroke="grey" stroke-width="2" d="M390.336,-287.876C376.216,-278.808 358.689,-267.552 343.439,-257.759"/>
<polygon fill="grey" stroke="grey" points="345.073,-254.648 334.767,-252.19 341.29,-260.538 345.073,-254.648"/>
</g>
<!-- 11 -->
<g id="node12" class="node"><title>11</title>
<polyline fill="none" stroke="#9fd856" stroke-width="2" points="611,-252 545,-252 "/>
<path fill="none" stroke="#9fd856" stroke-width="2" d="M545,-252C539,-252 533,-246 533,-240"/>
<polyline fill="none" stroke="#9fd856" stroke-width="2" points="533,-240 533,-228 "/>
<path fill="none" stroke="#9fd856" stroke-width="2" d="M533,-228C533,-222 539,-216 545,-216"/>
<polyline fill="none" stroke="#9fd856" stroke-width="2" points="545,-216 611,-216 "/>
<path fill="none" stroke="#9fd856" stroke-width="2" d="M611,-216C617,-216 623,-222 623,-228"/>
<polyline fill="none" stroke="#9fd856" stroke-width="2" points="623,-228 623,-240 "/>
<path fill="none" stroke="#9fd856" stroke-width="2" d="M623,-240C623,-246 617,-252 611,-252"/>
<text text-anchor="middle" x="578" y="-231.5" font-family="sans" font-size="10.00">norm_chisq_bg</text>
</g>
<!-- 5&#45;&gt;11 -->
<g id="edge26" class="edge"><title>5&#45;&gt;11</title>
<path fill="none" stroke="grey" stroke-width="2" d="M456.385,-287.876C478.395,-278.307 506.01,-266.3 529.36,-256.148"/>
<polygon fill="grey" stroke="grey" points="530.968,-259.265 538.743,-252.068 528.177,-252.846 530.968,-259.265"/>
</g>
<!-- 17 -->
<g id="node18" class="node"><title>17</title>
<polyline fill="none" stroke="#d86e56" stroke-width="2" points="496,-252 392,-252 "/>
<path fill="none" stroke="#d86e56" stroke-width="2" d="M392,-252C386,-252 380,-246 380,-240"/>
<polyline fill="none" stroke="#d86e56" stroke-width="2" points="380,-240 380,-228 "/>
<path fill="none" stroke="#d86e56" stroke-width="2" d="M380,-228C380,-222 386,-216 392,-216"/>
<polyline fill="none" stroke="#d86e56" stroke-width="2" points="392,-216 496,-216 "/>
<path fill="none" stroke="#d86e56" stroke-width="2" d="M496,-216C502,-216 508,-222 508,-228"/>
<polyline fill="none" stroke="#d86e56" stroke-width="2" points="508,-228 508,-240 "/>
<path fill="none" stroke="#d86e56" stroke-width="2" d="M508,-240C508,-246 502,-252 496,-252"/>
<text text-anchor="middle" x="444" y="-231.5" font-family="sans" font-size="10.00">anno_annotate_clipper</text>
</g>
<!-- 5&#45;&gt;17 -->
<g id="edge36" class="edge"><title>5&#45;&gt;17</title>
<path fill="none" stroke="grey" stroke-width="2" d="M423.674,-287.697C426.715,-279.813 430.383,-270.304 433.761,-261.546"/>
<polygon fill="grey" stroke="grey" points="437.069,-262.694 437.403,-252.104 430.538,-260.175 437.069,-262.694"/>
</g>
<!-- 6 -->
<g id="node7" class="node"><title>6</title>
<polyline fill="none" stroke="#d85656" stroke-width="2" points="374,-180 242,-180 "/>
<path fill="none" stroke="#d85656" stroke-width="2" d="M242,-180C236,-180 230,-174 230,-168"/>
<polyline fill="none" stroke="#d85656" stroke-width="2" points="230,-168 230,-156 "/>
<path fill="none" stroke="#d85656" stroke-width="2" d="M230,-156C230,-150 236,-144 242,-144"/>
<polyline fill="none" stroke="#d85656" stroke-width="2" points="242,-144 374,-144 "/>
<path fill="none" stroke="#d85656" stroke-width="2" d="M374,-144C380,-144 386,-150 386,-156"/>
<polyline fill="none" stroke="#d85656" stroke-width="2" points="386,-156 386,-168 "/>
<path fill="none" stroke="#d85656" stroke-width="2" d="M386,-168C386,-174 380,-180 374,-180"/>
<text text-anchor="middle" x="308" y="-159.5" font-family="sans" font-size="10.00">anno_motif_analysis_clipper</text>
</g>
<!-- 7&#45;&gt;6 -->
<g id="edge12" class="edge"><title>7&#45;&gt;6</title>
<path fill="none" stroke="grey" stroke-width="2" d="M308,-215.697C308,-207.983 308,-198.712 308,-190.112"/>
<polygon fill="grey" stroke="grey" points="311.5,-190.104 308,-180.104 304.5,-190.104 311.5,-190.104"/>
</g>
<!-- 8 -->
<g id="node9" class="node"><title>8</title>
<polyline fill="none" stroke="#5682d8" stroke-width="2" points="547.5,-36 510.5,-36 "/>
<path fill="none" stroke="#5682d8" stroke-width="2" d="M510.5,-36C504.5,-36 498.5,-30 498.5,-24"/>
<polyline fill="none" stroke="#5682d8" stroke-width="2" points="498.5,-24 498.5,-12 "/>
<path fill="none" stroke="#5682d8" stroke-width="2" d="M498.5,-12C498.5,-6 504.5,-0 510.5,-0"/>
<polyline fill="none" stroke="#5682d8" stroke-width="2" points="510.5,-0 547.5,-0 "/>
<path fill="none" stroke="#5682d8" stroke-width="2" d="M547.5,-0C553.5,-0 559.5,-6 559.5,-12"/>
<polyline fill="none" stroke="#5682d8" stroke-width="2" points="559.5,-12 559.5,-24 "/>
<path fill="none" stroke="#5682d8" stroke-width="2" d="M559.5,-24C559.5,-30 553.5,-36 547.5,-36"/>
<text text-anchor="middle" x="529" y="-15.5" font-family="sans" font-size="10.00">chi_motif</text>
</g>
<!-- 9 -->
<g id="node10" class="node"><title>9</title>
<polyline fill="none" stroke="#56d0d8" stroke-width="2" points="550.25,-108 515.75,-108 "/>
<path fill="none" stroke="#56d0d8" stroke-width="2" d="M515.75,-108C509.75,-108 503.75,-102 503.75,-96"/>
<polyline fill="none" stroke="#56d0d8" stroke-width="2" points="503.75,-96 503.75,-84 "/>
<path fill="none" stroke="#56d0d8" stroke-width="2" d="M503.75,-84C503.75,-78 509.75,-72 515.75,-72"/>
<polyline fill="none" stroke="#56d0d8" stroke-width="2" points="515.75,-72 550.25,-72 "/>
<path fill="none" stroke="#56d0d8" stroke-width="2" d="M550.25,-72C556.25,-72 562.25,-78 562.25,-84"/>
<polyline fill="none" stroke="#56d0d8" stroke-width="2" points="562.25,-84 562.25,-96 "/>
<path fill="none" stroke="#56d0d8" stroke-width="2" d="M562.25,-96C562.25,-102 556.25,-108 550.25,-108"/>
<text text-anchor="middle" x="533" y="-87.5" font-family="sans" font-size="10.00">filter_chi</text>
</g>
<!-- 9&#45;&gt;8 -->
<g id="edge16" class="edge"><title>9&#45;&gt;8</title>
<path fill="none" stroke="grey" stroke-width="2" d="M532.011,-71.6966C531.57,-63.9827 531.041,-54.7125 530.549,-46.1124"/>
<polygon fill="grey" stroke="grey" points="534.042,-45.8883 529.977,-36.1043 527.054,-46.2878 534.042,-45.8883"/>
</g>
<!-- 10 -->
<g id="node11" class="node"><title>10</title>
<polyline fill="none" stroke="#61d856" stroke-width="2" points="607.25,-180 548.75,-180 "/>
<path fill="none" stroke="#61d856" stroke-width="2" d="M548.75,-180C542.75,-180 536.75,-174 536.75,-168"/>
<polyline fill="none" stroke="#61d856" stroke-width="2" points="536.75,-168 536.75,-156 "/>
<path fill="none" stroke="#61d856" stroke-width="2" d="M536.75,-156C536.75,-150 542.75,-144 548.75,-144"/>
<polyline fill="none" stroke="#61d856" stroke-width="2" points="548.75,-144 607.25,-144 "/>
<path fill="none" stroke="#61d856" stroke-width="2" d="M607.25,-144C613.25,-144 619.25,-150 619.25,-156"/>
<polyline fill="none" stroke="#61d856" stroke-width="2" points="619.25,-156 619.25,-168 "/>
<path fill="none" stroke="#61d856" stroke-width="2" d="M619.25,-168C619.25,-174 613.25,-180 607.25,-180"/>
<text text-anchor="middle" x="578" y="-159.5" font-family="sans" font-size="10.00">compress_chi</text>
</g>
<!-- 10&#45;&gt;9 -->
<g id="edge18" class="edge"><title>10&#45;&gt;9</title>
<path fill="none" stroke="grey" stroke-width="2" d="M566.876,-143.697C561.645,-135.559 555.3,-125.689 549.522,-116.701"/>
<polygon fill="grey" stroke="grey" points="552.347,-114.623 543.996,-108.104 546.459,-118.409 552.347,-114.623"/>
</g>
<!-- 15 -->
<g id="node16" class="node"><title>15</title>
<polyline fill="none" stroke="#56d873" stroke-width="2" points="634.5,-108 599.5,-108 "/>
<path fill="none" stroke="#56d873" stroke-width="2" d="M599.5,-108C593.5,-108 587.5,-102 587.5,-96"/>
<polyline fill="none" stroke="#56d873" stroke-width="2" points="587.5,-96 587.5,-84 "/>
<path fill="none" stroke="#56d873" stroke-width="2" d="M587.5,-84C587.5,-78 593.5,-72 599.5,-72"/>
<polyline fill="none" stroke="#56d873" stroke-width="2" points="599.5,-72 634.5,-72 "/>
<path fill="none" stroke="#56d873" stroke-width="2" d="M634.5,-72C640.5,-72 646.5,-78 646.5,-84"/>
<polyline fill="none" stroke="#56d873" stroke-width="2" points="646.5,-84 646.5,-96 "/>
<path fill="none" stroke="#56d873" stroke-width="2" d="M646.5,-96C646.5,-102 640.5,-108 634.5,-108"/>
<text text-anchor="middle" x="617" y="-87.5" font-family="sans" font-size="10.00">anno_chi</text>
</g>
<!-- 10&#45;&gt;15 -->
<g id="edge32" class="edge"><title>10&#45;&gt;15</title>
<path fill="none" stroke="grey" stroke-width="2" d="M587.64,-143.697C592.127,-135.644 597.559,-125.894 602.524,-116.982"/>
<polygon fill="grey" stroke="grey" points="605.661,-118.544 607.47,-108.104 599.546,-115.137 605.661,-118.544"/>
</g>
<!-- 11&#45;&gt;10 -->
<g id="edge20" class="edge"><title>11&#45;&gt;10</title>
<path fill="none" stroke="grey" stroke-width="2" d="M578,-215.697C578,-207.983 578,-198.712 578,-190.112"/>
<polygon fill="grey" stroke="grey" points="581.5,-190.104 578,-180.104 574.5,-190.104 581.5,-190.104"/>
</g>
<!-- 12 -->
<g id="node13" class="node"><title>12</title>
<polyline fill="none" stroke="#56d863" stroke-width="2" points="735,-401.5 493,-401.5 "/>
<path fill="none" stroke="#56d863" stroke-width="2" d="M493,-401.5C487,-401.5 481,-395.5 481,-389.5"/>
<polyline fill="none" stroke="#56d863" stroke-width="2" points="481,-389.5 481,-372.5 "/>
<path fill="none" stroke="#56d863" stroke-width="2" d="M481,-372.5C481,-366.5 487,-360.5 493,-360.5"/>
<polyline fill="none" stroke="#56d863" stroke-width="2" points="493,-360.5 735,-360.5 "/>
<path fill="none" stroke="#56d863" stroke-width="2" d="M735,-360.5C741,-360.5 747,-366.5 747,-372.5"/>
<polyline fill="none" stroke="#56d863" stroke-width="2" points="747,-372.5 747,-389.5 "/>
<path fill="none" stroke="#56d863" stroke-width="2" d="M747,-389.5C747,-395.5 741,-401.5 735,-401.5"/>
<text text-anchor="middle" x="614" y="-389.5" font-family="sans" font-size="10.00">chi_concat_other_bams</text>
<text text-anchor="middle" x="614" y="-378.5" font-family="sans" font-size="10.00">lib: Dan_multiplex1_K562_rep1</text>
<text text-anchor="middle" x="614" y="-367.5" font-family="sans" font-size="10.00">sample_label: Dan_multiplex1_K562_rep1_RBFOX2</text>
</g>
<!-- 12&#45;&gt;11 -->
<g id="edge22" class="edge"><title>12&#45;&gt;11</title>
<path fill="none" stroke="grey" stroke-width="2" d="M607.612,-360.418C604.235,-349.719 600.148,-336.199 597,-324 591.704,-303.476 586.741,-280.022 583.216,-262.344"/>
<polygon fill="grey" stroke="grey" points="586.578,-261.301 581.217,-252.162 579.709,-262.649 586.578,-261.301"/>
</g>
<!-- 13 -->
<g id="node14" class="node"><title>13</title>
<polyline fill="none" stroke="#c6d856" stroke-width="2" points="684,-324 618,-324 "/>
<path fill="none" stroke="#c6d856" stroke-width="2" d="M618,-324C612,-324 606,-318 606,-312"/>
<polyline fill="none" stroke="#c6d856" stroke-width="2" points="606,-312 606,-300 "/>
<path fill="none" stroke="#c6d856" stroke-width="2" d="M606,-300C606,-294 612,-288 618,-288"/>
<polyline fill="none" stroke="#c6d856" stroke-width="2" points="618,-288 684,-288 "/>
<path fill="none" stroke="#c6d856" stroke-width="2" d="M684,-288C690,-288 696,-294 696,-300"/>
<polyline fill="none" stroke="#c6d856" stroke-width="2" points="696,-300 696,-312 "/>
<path fill="none" stroke="#c6d856" stroke-width="2" d="M696,-312C696,-318 690,-324 684,-324"/>
<text text-anchor="middle" x="651" y="-303.5" font-family="sans" font-size="10.00">count_bam_chi</text>
</g>
<!-- 12&#45;&gt;13 -->
<g id="edge28" class="edge"><title>12&#45;&gt;13</title>
<path fill="none" stroke="grey" stroke-width="2" d="M623.915,-360.437C628.173,-352.037 633.21,-342.098 637.779,-333.085"/>
<polygon fill="grey" stroke="grey" points="640.919,-334.632 642.318,-324.13 634.675,-331.467 640.919,-334.632"/>
</g>
<!-- 13&#45;&gt;11 -->
<g id="edge24" class="edge"><title>13&#45;&gt;11</title>
<path fill="none" stroke="grey" stroke-width="2" d="M632.955,-287.697C623.938,-279.05 612.882,-268.449 603.057,-259.027"/>
<polygon fill="grey" stroke="grey" points="605.478,-256.499 595.837,-252.104 600.633,-261.552 605.478,-256.499"/>
</g>
<!-- 14 -->
<g id="node15" class="node"><title>14</title>
<polyline fill="none" stroke="#56a9d8" stroke-width="2" points="649.25,-36 590.75,-36 "/>
<path fill="none" stroke="#56a9d8" stroke-width="2" d="M590.75,-36C584.75,-36 578.75,-30 578.75,-24"/>
<polyline fill="none" stroke="#56a9d8" stroke-width="2" points="578.75,-24 578.75,-12 "/>
<path fill="none" stroke="#56a9d8" stroke-width="2" d="M578.75,-12C578.75,-6 584.75,-0 590.75,-0"/>
<polyline fill="none" stroke="#56a9d8" stroke-width="2" points="590.75,-0 649.25,-0 "/>
<path fill="none" stroke="#56a9d8" stroke-width="2" d="M649.25,-0C655.25,-0 661.25,-6 661.25,-12"/>
<polyline fill="none" stroke="#56a9d8" stroke-width="2" points="661.25,-12 661.25,-24 "/>
<path fill="none" stroke="#56a9d8" stroke-width="2" d="M661.25,-24C661.25,-30 655.25,-36 649.25,-36"/>
<text text-anchor="middle" x="620" y="-15.5" font-family="sans" font-size="10.00">chi_summary</text>
</g>
<!-- 15&#45;&gt;14 -->
<g id="edge30" class="edge"><title>15&#45;&gt;14</title>
<path fill="none" stroke="grey" stroke-width="2" d="M617.742,-71.6966C618.072,-63.9827 618.469,-54.7125 618.838,-46.1124"/>
<polygon fill="grey" stroke="grey" points="622.335,-46.2451 619.267,-36.1043 615.342,-45.9453 622.335,-46.2451"/>
</g>
</g>
</svg>
