<?xml version="1.0" encoding="UTF-8" standalone="no"?>
<!DOCTYPE svg PUBLIC "-//W3C//DTD SVG 1.1//EN"
 "http://www.w3.org/Graphics/SVG/1.1/DTD/svg11.dtd">
<!-- Generated by graphviz version 2.28.0 (20171202.0115)
 -->
<!-- Title: snakemake_dag Pages: 1 -->
<svg width="507pt" height="410pt"
 viewBox="0.00 0.00 507.00 410.00" xmlns="http://www.w3.org/2000/svg" xmlns:xlink="http://www.w3.org/1999/xlink">
<g id="graph1" class="graph" transform="scale(1 1) rotate(0) translate(4 406)">
<title>snakemake_dag</title>
<polygon fill="white" stroke="white" points="-4,5 -4,-406 504,-406 504,5 -4,5"/>
<!-- 0 -->
<g id="node1" class="node"><title>0</title>
<polyline fill="none" stroke="#56d8c9" stroke-width="2" points="146.5,-36 109.5,-36 "/>
<path fill="none" stroke="#56d8c9" stroke-width="2" d="M109.5,-36C103.5,-36 97.5,-30 97.5,-24"/>
<polyline fill="none" stroke="#56d8c9" stroke-width="2" points="97.5,-24 97.5,-12 "/>
<path fill="none" stroke="#56d8c9" stroke-width="2" d="M97.5,-12C97.5,-6 103.5,-0 109.5,-0"/>
<polyline fill="none" stroke="#56d8c9" stroke-width="2" points="109.5,-0 146.5,-0 "/>
<path fill="none" stroke="#56d8c9" stroke-width="2" d="M146.5,-0C152.5,-0 158.5,-6 158.5,-12"/>
<polyline fill="none" stroke="#56d8c9" stroke-width="2" points="158.5,-12 158.5,-24 "/>
<path fill="none" stroke="#56d8c9" stroke-width="2" d="M158.5,-24C158.5,-30 152.5,-36 146.5,-36"/>
<text text-anchor="middle" x="128" y="-15.5" font-family="sans" font-size="10.00">chi_motif</text>
</g>
<!-- 1 -->
<g id="node2" class="node"><title>1</title>
<polyline fill="none" stroke="#88d856" stroke-width="2" points="148.25,-108 113.75,-108 "/>
<path fill="none" stroke="#88d856" stroke-width="2" d="M113.75,-108C107.75,-108 101.75,-102 101.75,-96"/>
<polyline fill="none" stroke="#88d856" stroke-width="2" points="101.75,-96 101.75,-84 "/>
<path fill="none" stroke="#88d856" stroke-width="2" d="M101.75,-84C101.75,-78 107.75,-72 113.75,-72"/>
<polyline fill="none" stroke="#88d856" stroke-width="2" points="113.75,-72 148.25,-72 "/>
<path fill="none" stroke="#88d856" stroke-width="2" d="M148.25,-72C154.25,-72 160.25,-78 160.25,-84"/>
<polyline fill="none" stroke="#88d856" stroke-width="2" points="160.25,-84 160.25,-96 "/>
<path fill="none" stroke="#88d856" stroke-width="2" d="M160.25,-96C160.25,-102 154.25,-108 148.25,-108"/>
<text text-anchor="middle" x="131" y="-87.5" font-family="sans" font-size="10.00">filter_chi</text>
</g>
<!-- 1&#45;&gt;0 -->
<g id="edge2" class="edge"><title>1&#45;&gt;0</title>
<path fill="none" stroke="grey" stroke-width="2" d="M130.258,-71.6966C129.928,-63.9827 129.531,-54.7125 129.162,-46.1124"/>
<polygon fill="grey" stroke="grey" points="132.658,-45.9453 128.733,-36.1043 125.665,-46.2451 132.658,-45.9453"/>
</g>
<!-- 2 -->
<g id="node3" class="node"><title>2</title>
<polyline fill="none" stroke="#61d856" stroke-width="2" points="199.25,-180 140.75,-180 "/>
<path fill="none" stroke="#61d856" stroke-width="2" d="M140.75,-180C134.75,-180 128.75,-174 128.75,-168"/>
<polyline fill="none" stroke="#61d856" stroke-width="2" points="128.75,-168 128.75,-156 "/>
<path fill="none" stroke="#61d856" stroke-width="2" d="M128.75,-156C128.75,-150 134.75,-144 140.75,-144"/>
<polyline fill="none" stroke="#61d856" stroke-width="2" points="140.75,-144 199.25,-144 "/>
<path fill="none" stroke="#61d856" stroke-width="2" d="M199.25,-144C205.25,-144 211.25,-150 211.25,-156"/>
<polyline fill="none" stroke="#61d856" stroke-width="2" points="211.25,-156 211.25,-168 "/>
<path fill="none" stroke="#61d856" stroke-width="2" d="M211.25,-168C211.25,-174 205.25,-180 199.25,-180"/>
<text text-anchor="middle" x="170" y="-159.5" font-family="sans" font-size="10.00">compress_chi</text>
</g>
<!-- 2&#45;&gt;1 -->
<g id="edge4" class="edge"><title>2&#45;&gt;1</title>
<path fill="none" stroke="grey" stroke-width="2" d="M160.36,-143.697C155.873,-135.644 150.441,-125.894 145.476,-116.982"/>
<polygon fill="grey" stroke="grey" points="148.454,-115.137 140.53,-108.104 142.339,-118.544 148.454,-115.137"/>
</g>
<!-- 8 -->
<g id="node9" class="node"><title>8</title>
<polyline fill="none" stroke="#56d863" stroke-width="2" points="232.5,-108 197.5,-108 "/>
<path fill="none" stroke="#56d863" stroke-width="2" d="M197.5,-108C191.5,-108 185.5,-102 185.5,-96"/>
<polyline fill="none" stroke="#56d863" stroke-width="2" points="185.5,-96 185.5,-84 "/>
<path fill="none" stroke="#56d863" stroke-width="2" d="M185.5,-84C185.5,-78 191.5,-72 197.5,-72"/>
<polyline fill="none" stroke="#56d863" stroke-width="2" points="197.5,-72 232.5,-72 "/>
<path fill="none" stroke="#56d863" stroke-width="2" d="M232.5,-72C238.5,-72 244.5,-78 244.5,-84"/>
<polyline fill="none" stroke="#56d863" stroke-width="2" points="244.5,-84 244.5,-96 "/>
<path fill="none" stroke="#56d863" stroke-width="2" d="M244.5,-96C244.5,-102 238.5,-108 232.5,-108"/>
<text text-anchor="middle" x="215" y="-87.5" font-family="sans" font-size="10.00">anno_chi</text>
</g>
<!-- 2&#45;&gt;8 -->
<g id="edge18" class="edge"><title>2&#45;&gt;8</title>
<path fill="none" stroke="grey" stroke-width="2" d="M181.124,-143.697C186.355,-135.559 192.7,-125.689 198.478,-116.701"/>
<polygon fill="grey" stroke="grey" points="201.541,-118.409 204.004,-108.104 195.653,-114.623 201.541,-118.409"/>
</g>
<!-- 3 -->
<g id="node4" class="node"><title>3</title>
<polyline fill="none" stroke="#5692d8" stroke-width="2" points="203,-252 137,-252 "/>
<path fill="none" stroke="#5692d8" stroke-width="2" d="M137,-252C131,-252 125,-246 125,-240"/>
<polyline fill="none" stroke="#5692d8" stroke-width="2" points="125,-240 125,-228 "/>
<path fill="none" stroke="#5692d8" stroke-width="2" d="M125,-228C125,-222 131,-216 137,-216"/>
<polyline fill="none" stroke="#5692d8" stroke-width="2" points="137,-216 203,-216 "/>
<path fill="none" stroke="#5692d8" stroke-width="2" d="M203,-216C209,-216 215,-222 215,-228"/>
<polyline fill="none" stroke="#5692d8" stroke-width="2" points="215,-228 215,-240 "/>
<path fill="none" stroke="#5692d8" stroke-width="2" d="M215,-240C215,-246 209,-252 203,-252"/>
<text text-anchor="middle" x="170" y="-231.5" font-family="sans" font-size="10.00">norm_chisq_bg</text>
</g>
<!-- 3&#45;&gt;2 -->
<g id="edge6" class="edge"><title>3&#45;&gt;2</title>
<path fill="none" stroke="grey" stroke-width="2" d="M170,-215.697C170,-207.983 170,-198.712 170,-190.112"/>
<polygon fill="grey" stroke="grey" points="173.5,-190.104 170,-180.104 166.5,-190.104 173.5,-190.104"/>
</g>
<!-- 4 -->
<g id="node5" class="node"><title>4</title>
<polyline fill="none" stroke="#5682d8" stroke-width="2" points="254,-401.5 12,-401.5 "/>
<path fill="none" stroke="#5682d8" stroke-width="2" d="M12,-401.5C6,-401.5 0,-395.5 0,-389.5"/>
<polyline fill="none" stroke="#5682d8" stroke-width="2" points="0,-389.5 0,-372.5 "/>
<path fill="none" stroke="#5682d8" stroke-width="2" d="M0,-372.5C0,-366.5 6,-360.5 12,-360.5"/>
<polyline fill="none" stroke="#5682d8" stroke-width="2" points="12,-360.5 254,-360.5 "/>
<path fill="none" stroke="#5682d8" stroke-width="2" d="M254,-360.5C260,-360.5 266,-366.5 266,-372.5"/>
<polyline fill="none" stroke="#5682d8" stroke-width="2" points="266,-372.5 266,-389.5 "/>
<path fill="none" stroke="#5682d8" stroke-width="2" d="M266,-389.5C266,-395.5 260,-401.5 254,-401.5"/>
<text text-anchor="middle" x="133" y="-389.5" font-family="sans" font-size="10.00">chi_concat_other_bams</text>
<text text-anchor="middle" x="133" y="-378.5" font-family="sans" font-size="10.00">lib: Dan_multiplex1_K562_rep1</text>
<text text-anchor="middle" x="133" y="-367.5" font-family="sans" font-size="10.00">sample_label: Dan_multiplex1_K562_rep1_RBFOX2</text>
</g>
<!-- 4&#45;&gt;3 -->
<g id="edge8" class="edge"><title>4&#45;&gt;3</title>
<path fill="none" stroke="grey" stroke-width="2" d="M123.067,-360.279C114.872,-341.162 106.068,-311.664 116,-288 120.64,-276.945 128.834,-267.037 137.46,-258.862"/>
<polygon fill="grey" stroke="grey" points="139.893,-261.382 145.072,-252.139 135.26,-256.136 139.893,-261.382"/>
</g>
<!-- 5 -->
<g id="node6" class="node"><title>5</title>
<polyline fill="none" stroke="#56d8a2" stroke-width="2" points="203,-324 137,-324 "/>
<path fill="none" stroke="#56d8a2" stroke-width="2" d="M137,-324C131,-324 125,-318 125,-312"/>
<polyline fill="none" stroke="#56d8a2" stroke-width="2" points="125,-312 125,-300 "/>
<path fill="none" stroke="#56d8a2" stroke-width="2" d="M125,-300C125,-294 131,-288 137,-288"/>
<polyline fill="none" stroke="#56d8a2" stroke-width="2" points="137,-288 203,-288 "/>
<path fill="none" stroke="#56d8a2" stroke-width="2" d="M203,-288C209,-288 215,-294 215,-300"/>
<polyline fill="none" stroke="#56d8a2" stroke-width="2" points="215,-300 215,-312 "/>
<path fill="none" stroke="#56d8a2" stroke-width="2" d="M215,-312C215,-318 209,-324 203,-324"/>
<text text-anchor="middle" x="170" y="-303.5" font-family="sans" font-size="10.00">count_bam_chi</text>
</g>
<!-- 4&#45;&gt;5 -->
<g id="edge14" class="edge"><title>4&#45;&gt;5</title>
<path fill="none" stroke="grey" stroke-width="2" d="M142.915,-360.437C147.173,-352.037 152.21,-342.098 156.779,-333.085"/>
<polygon fill="grey" stroke="grey" points="159.919,-334.632 161.318,-324.13 153.675,-331.467 159.919,-334.632"/>
</g>
<!-- 5&#45;&gt;3 -->
<g id="edge10" class="edge"><title>5&#45;&gt;3</title>
<path fill="none" stroke="grey" stroke-width="2" d="M170,-287.697C170,-279.983 170,-270.712 170,-262.112"/>
<polygon fill="grey" stroke="grey" points="173.5,-262.104 170,-252.104 166.5,-262.104 173.5,-262.104"/>
</g>
<!-- 6 -->
<g id="node7" class="node"><title>6</title>
<polyline fill="none" stroke="#56a9d8" stroke-width="2" points="487,-324 245,-324 "/>
<path fill="none" stroke="#56a9d8" stroke-width="2" d="M245,-324C239,-324 233,-318 233,-312"/>
<polyline fill="none" stroke="#56a9d8" stroke-width="2" points="233,-312 233,-300 "/>
<path fill="none" stroke="#56a9d8" stroke-width="2" d="M233,-300C233,-294 239,-288 245,-288"/>
<polyline fill="none" stroke="#56a9d8" stroke-width="2" points="245,-288 487,-288 "/>
<path fill="none" stroke="#56a9d8" stroke-width="2" d="M487,-288C493,-288 499,-294 499,-300"/>
<polyline fill="none" stroke="#56a9d8" stroke-width="2" points="499,-300 499,-312 "/>
<path fill="none" stroke="#56a9d8" stroke-width="2" d="M499,-312C499,-318 493,-324 487,-324"/>
<text text-anchor="middle" x="366" y="-309" font-family="sans" font-size="10.00">call_clipper</text>
<text text-anchor="middle" x="366" y="-298" font-family="sans" font-size="10.00">sample_label: Dan_multiplex1_K562_rep1_RBFOX2</text>
</g>
<!-- 6&#45;&gt;3 -->
<g id="edge12" class="edge"><title>6&#45;&gt;3</title>
<path fill="none" stroke="grey" stroke-width="2" d="M318.304,-287.966C290.104,-277.894 254.279,-265.1 224.905,-254.609"/>
<polygon fill="grey" stroke="grey" points="225.806,-251.214 215.211,-251.147 223.451,-257.806 225.806,-251.214"/>
</g>
<!-- 7 -->
<g id="node8" class="node"><title>7</title>
<polyline fill="none" stroke="#56d88a" stroke-width="2" points="248.25,-36 189.75,-36 "/>
<path fill="none" stroke="#56d88a" stroke-width="2" d="M189.75,-36C183.75,-36 177.75,-30 177.75,-24"/>
<polyline fill="none" stroke="#56d88a" stroke-width="2" points="177.75,-24 177.75,-12 "/>
<path fill="none" stroke="#56d88a" stroke-width="2" d="M177.75,-12C177.75,-6 183.75,-0 189.75,-0"/>
<polyline fill="none" stroke="#56d88a" stroke-width="2" points="189.75,-0 248.25,-0 "/>
<path fill="none" stroke="#56d88a" stroke-width="2" d="M248.25,-0C254.25,-0 260.25,-6 260.25,-12"/>
<polyline fill="none" stroke="#56d88a" stroke-width="2" points="260.25,-12 260.25,-24 "/>
<path fill="none" stroke="#56d88a" stroke-width="2" d="M260.25,-24C260.25,-30 254.25,-36 248.25,-36"/>
<text text-anchor="middle" x="219" y="-15.5" font-family="sans" font-size="10.00">chi_summary</text>
</g>
<!-- 8&#45;&gt;7 -->
<g id="edge16" class="edge"><title>8&#45;&gt;7</title>
<path fill="none" stroke="grey" stroke-width="2" d="M215.989,-71.6966C216.43,-63.9827 216.959,-54.7125 217.451,-46.1124"/>
<polygon fill="grey" stroke="grey" points="220.946,-46.2878 218.023,-36.1043 213.958,-45.8883 220.946,-46.2878"/>
</g>
</g>
</svg>
