<?xml version="1.0" encoding="UTF-8" standalone="no"?>
<!DOCTYPE svg PUBLIC "-//W3C//DTD SVG 1.1//EN"
 "http://www.w3.org/Graphics/SVG/1.1/DTD/svg11.dtd">
<!-- Generated by graphviz version 2.28.0 (20171202.0115)
 -->
<!-- Title: snakemake_dag Pages: 1 -->
<svg width="507pt" height="266pt"
 viewBox="0.00 0.00 507.00 266.00" xmlns="http://www.w3.org/2000/svg" xmlns:xlink="http://www.w3.org/1999/xlink">
<g id="graph1" class="graph" transform="scale(1 1) rotate(0) translate(4 262)">
<title>snakemake_dag</title>
<polygon fill="white" stroke="white" points="-4,5 -4,-262 504,-262 504,5 -4,5"/>
<!-- 0 -->
<g id="node1" class="node"><title>0</title>
<polyline fill="none" stroke="#d8ac56" stroke-width="2" points="199.25,-36 140.75,-36 "/>
<path fill="none" stroke="#d8ac56" stroke-width="2" d="M140.75,-36C134.75,-36 128.75,-30 128.75,-24"/>
<polyline fill="none" stroke="#d8ac56" stroke-width="2" points="128.75,-24 128.75,-12 "/>
<path fill="none" stroke="#d8ac56" stroke-width="2" d="M128.75,-12C128.75,-6 134.75,-0 140.75,-0"/>
<polyline fill="none" stroke="#d8ac56" stroke-width="2" points="140.75,-0 199.25,-0 "/>
<path fill="none" stroke="#d8ac56" stroke-width="2" d="M199.25,-0C205.25,-0 211.25,-6 211.25,-12"/>
<polyline fill="none" stroke="#d8ac56" stroke-width="2" points="211.25,-12 211.25,-24 "/>
<path fill="none" stroke="#d8ac56" stroke-width="2" d="M211.25,-24C211.25,-30 205.25,-36 199.25,-36"/>
<text text-anchor="middle" x="170" y="-15.5" font-family="sans" font-size="10.00">compress_chi</text>
</g>
<!-- 1 -->
<g id="node2" class="node"><title>1</title>
<polyline fill="none" stroke="#56d0d8" stroke-width="2" points="203,-108 137,-108 "/>
<path fill="none" stroke="#56d0d8" stroke-width="2" d="M137,-108C131,-108 125,-102 125,-96"/>
<polyline fill="none" stroke="#56d0d8" stroke-width="2" points="125,-96 125,-84 "/>
<path fill="none" stroke="#56d0d8" stroke-width="2" d="M125,-84C125,-78 131,-72 137,-72"/>
<polyline fill="none" stroke="#56d0d8" stroke-width="2" points="137,-72 203,-72 "/>
<path fill="none" stroke="#56d0d8" stroke-width="2" d="M203,-72C209,-72 215,-78 215,-84"/>
<polyline fill="none" stroke="#56d0d8" stroke-width="2" points="215,-84 215,-96 "/>
<path fill="none" stroke="#56d0d8" stroke-width="2" d="M215,-96C215,-102 209,-108 203,-108"/>
<text text-anchor="middle" x="170" y="-87.5" font-family="sans" font-size="10.00">norm_chisq_bg</text>
</g>
<!-- 1&#45;&gt;0 -->
<g id="edge2" class="edge"><title>1&#45;&gt;0</title>
<path fill="none" stroke="grey" stroke-width="2" d="M170,-71.6966C170,-63.9827 170,-54.7125 170,-46.1124"/>
<polygon fill="grey" stroke="grey" points="173.5,-46.1043 170,-36.1043 166.5,-46.1044 173.5,-46.1043"/>
</g>
<!-- 2 -->
<g id="node3" class="node"><title>2</title>
<polyline fill="none" stroke="#d86e56" stroke-width="2" points="254,-257.5 12,-257.5 "/>
<path fill="none" stroke="#d86e56" stroke-width="2" d="M12,-257.5C6,-257.5 0,-251.5 0,-245.5"/>
<polyline fill="none" stroke="#d86e56" stroke-width="2" points="0,-245.5 0,-228.5 "/>
<path fill="none" stroke="#d86e56" stroke-width="2" d="M0,-228.5C0,-222.5 6,-216.5 12,-216.5"/>
<polyline fill="none" stroke="#d86e56" stroke-width="2" points="12,-216.5 254,-216.5 "/>
<path fill="none" stroke="#d86e56" stroke-width="2" d="M254,-216.5C260,-216.5 266,-222.5 266,-228.5"/>
<polyline fill="none" stroke="#d86e56" stroke-width="2" points="266,-228.5 266,-245.5 "/>
<path fill="none" stroke="#d86e56" stroke-width="2" d="M266,-245.5C266,-251.5 260,-257.5 254,-257.5"/>
<text text-anchor="middle" x="133" y="-245.5" font-family="sans" font-size="10.00">chi_concat_other_bams</text>
<text text-anchor="middle" x="133" y="-234.5" font-family="sans" font-size="10.00">lib: Dan_multiplex1_K562_rep1</text>
<text text-anchor="middle" x="133" y="-223.5" font-family="sans" font-size="10.00">sample_label: Dan_multiplex1_K562_rep1_RBFOX2</text>
</g>
<!-- 2&#45;&gt;1 -->
<g id="edge4" class="edge"><title>2&#45;&gt;1</title>
<path fill="none" stroke="grey" stroke-width="2" d="M123.067,-216.279C114.872,-197.162 106.068,-167.664 116,-144 120.64,-132.945 128.834,-123.037 137.46,-114.862"/>
<polygon fill="grey" stroke="grey" points="139.893,-117.382 145.072,-108.139 135.26,-112.136 139.893,-117.382"/>
</g>
<!-- 3 -->
<g id="node4" class="node"><title>3</title>
<polyline fill="none" stroke="#56d863" stroke-width="2" points="203,-180 137,-180 "/>
<path fill="none" stroke="#56d863" stroke-width="2" d="M137,-180C131,-180 125,-174 125,-168"/>
<polyline fill="none" stroke="#56d863" stroke-width="2" points="125,-168 125,-156 "/>
<path fill="none" stroke="#56d863" stroke-width="2" d="M125,-156C125,-150 131,-144 137,-144"/>
<polyline fill="none" stroke="#56d863" stroke-width="2" points="137,-144 203,-144 "/>
<path fill="none" stroke="#56d863" stroke-width="2" d="M203,-144C209,-144 215,-150 215,-156"/>
<polyline fill="none" stroke="#56d863" stroke-width="2" points="215,-156 215,-168 "/>
<path fill="none" stroke="#56d863" stroke-width="2" d="M215,-168C215,-174 209,-180 203,-180"/>
<text text-anchor="middle" x="170" y="-159.5" font-family="sans" font-size="10.00">count_bam_chi</text>
</g>
<!-- 2&#45;&gt;3 -->
<g id="edge10" class="edge"><title>2&#45;&gt;3</title>
<path fill="none" stroke="grey" stroke-width="2" d="M142.915,-216.437C147.173,-208.037 152.21,-198.098 156.779,-189.085"/>
<polygon fill="grey" stroke="grey" points="159.919,-190.632 161.318,-180.13 153.675,-187.467 159.919,-190.632"/>
</g>
<!-- 3&#45;&gt;1 -->
<g id="edge6" class="edge"><title>3&#45;&gt;1</title>
<path fill="none" stroke="grey" stroke-width="2" d="M170,-143.697C170,-135.983 170,-126.712 170,-118.112"/>
<polygon fill="grey" stroke="grey" points="173.5,-118.104 170,-108.104 166.5,-118.104 173.5,-118.104"/>
</g>
<!-- 4 -->
<g id="node5" class="node"><title>4</title>
<polyline fill="none" stroke="#b6d856" stroke-width="2" points="487,-180 245,-180 "/>
<path fill="none" stroke="#b6d856" stroke-width="2" d="M245,-180C239,-180 233,-174 233,-168"/>
<polyline fill="none" stroke="#b6d856" stroke-width="2" points="233,-168 233,-156 "/>
<path fill="none" stroke="#b6d856" stroke-width="2" d="M233,-156C233,-150 239,-144 245,-144"/>
<polyline fill="none" stroke="#b6d856" stroke-width="2" points="245,-144 487,-144 "/>
<path fill="none" stroke="#b6d856" stroke-width="2" d="M487,-144C493,-144 499,-150 499,-156"/>
<polyline fill="none" stroke="#b6d856" stroke-width="2" points="499,-156 499,-168 "/>
<path fill="none" stroke="#b6d856" stroke-width="2" d="M499,-168C499,-174 493,-180 487,-180"/>
<text text-anchor="middle" x="366" y="-165" font-family="sans" font-size="10.00">call_clipper</text>
<text text-anchor="middle" x="366" y="-154" font-family="sans" font-size="10.00">sample_label: Dan_multiplex1_K562_rep1_RBFOX2</text>
</g>
<!-- 4&#45;&gt;1 -->
<g id="edge8" class="edge"><title>4&#45;&gt;1</title>
<path fill="none" stroke="grey" stroke-width="2" d="M318.304,-143.966C290.104,-133.894 254.279,-121.1 224.905,-110.609"/>
<polygon fill="grey" stroke="grey" points="225.806,-107.214 215.211,-107.147 223.451,-113.806 225.806,-107.214"/>
</g>
</g>
</svg>
