<?xml version="1.0" encoding="UTF-8" standalone="no"?>
<!DOCTYPE svg PUBLIC "-//W3C//DTD SVG 1.1//EN"
 "http://www.w3.org/Graphics/SVG/1.1/DTD/svg11.dtd">
<!-- Generated by graphviz version 2.28.0 (20171202.0115)
 -->
<!-- Title: snakemake_dag Pages: 1 -->
<svg width="558pt" height="188pt"
 viewBox="0.00 0.00 558.00 188.00" xmlns="http://www.w3.org/2000/svg" xmlns:xlink="http://www.w3.org/1999/xlink">
<g id="graph1" class="graph" transform="scale(1 1) rotate(0) translate(4 184)">
<title>snakemake_dag</title>
<polygon fill="white" stroke="white" points="-4,5 -4,-184 555,-184 555,5 -4,5"/>
<!-- 0 -->
<g id="node1" class="node"><title>0</title>
<polyline fill="none" stroke="#d8ac56" stroke-width="2" points="320.5,-36 229.5,-36 "/>
<path fill="none" stroke="#d8ac56" stroke-width="2" d="M229.5,-36C223.5,-36 217.5,-30 217.5,-24"/>
<polyline fill="none" stroke="#d8ac56" stroke-width="2" points="217.5,-24 217.5,-12 "/>
<path fill="none" stroke="#d8ac56" stroke-width="2" d="M217.5,-12C217.5,-6 223.5,-0 229.5,-0"/>
<polyline fill="none" stroke="#d8ac56" stroke-width="2" points="229.5,-0 320.5,-0 "/>
<path fill="none" stroke="#d8ac56" stroke-width="2" d="M320.5,-0C326.5,-0 332.5,-6 332.5,-12"/>
<polyline fill="none" stroke="#d8ac56" stroke-width="2" points="332.5,-12 332.5,-24 "/>
<path fill="none" stroke="#d8ac56" stroke-width="2" d="M332.5,-24C332.5,-30 326.5,-36 320.5,-36"/>
<text text-anchor="middle" x="275" y="-15.5" font-family="sans" font-size="10.00">call_compress_peak</text>
</g>
<!-- 1 -->
<g id="node2" class="node"><title>1</title>
<polyline fill="none" stroke="#9fd856" stroke-width="2" points="312.25,-108 237.75,-108 "/>
<path fill="none" stroke="#9fd856" stroke-width="2" d="M237.75,-108C231.75,-108 225.75,-102 225.75,-96"/>
<polyline fill="none" stroke="#9fd856" stroke-width="2" points="225.75,-96 225.75,-84 "/>
<path fill="none" stroke="#9fd856" stroke-width="2" d="M225.75,-84C225.75,-78 231.75,-72 237.75,-72"/>
<polyline fill="none" stroke="#9fd856" stroke-width="2" points="237.75,-72 312.25,-72 "/>
<path fill="none" stroke="#9fd856" stroke-width="2" d="M312.25,-72C318.25,-72 324.25,-78 324.25,-84"/>
<polyline fill="none" stroke="#9fd856" stroke-width="2" points="324.25,-84 324.25,-96 "/>
<path fill="none" stroke="#9fd856" stroke-width="2" d="M324.25,-96C324.25,-102 318.25,-108 312.25,-108"/>
<text text-anchor="middle" x="275" y="-87.5" font-family="sans" font-size="10.00">call_norm_peaks</text>
</g>
<!-- 1&#45;&gt;0 -->
<g id="edge2" class="edge"><title>1&#45;&gt;0</title>
<path fill="none" stroke="grey" stroke-width="2" d="M275,-71.6966C275,-63.9827 275,-54.7125 275,-46.1124"/>
<polygon fill="grey" stroke="grey" points="278.5,-46.1043 275,-36.1043 271.5,-46.1044 278.5,-46.1043"/>
</g>
<!-- 2 -->
<g id="node3" class="node"><title>2</title>
<polyline fill="none" stroke="#56d8a2" stroke-width="2" points="254,-180 12,-180 "/>
<path fill="none" stroke="#56d8a2" stroke-width="2" d="M12,-180C6,-180 0,-174 0,-168"/>
<polyline fill="none" stroke="#56d8a2" stroke-width="2" points="0,-168 0,-156 "/>
<path fill="none" stroke="#56d8a2" stroke-width="2" d="M0,-156C0,-150 6,-144 12,-144"/>
<polyline fill="none" stroke="#56d8a2" stroke-width="2" points="12,-144 254,-144 "/>
<path fill="none" stroke="#56d8a2" stroke-width="2" d="M254,-144C260,-144 266,-150 266,-156"/>
<polyline fill="none" stroke="#56d8a2" stroke-width="2" points="266,-156 266,-168 "/>
<path fill="none" stroke="#56d8a2" stroke-width="2" d="M266,-168C266,-174 260,-180 254,-180"/>
<text text-anchor="middle" x="133" y="-165" font-family="sans" font-size="10.00">call_count_read_num</text>
<text text-anchor="middle" x="133" y="-154" font-family="sans" font-size="10.00">sample_label: Dan_multiplex1_K562_rep1_RBFOX2</text>
</g>
<!-- 2&#45;&gt;1 -->
<g id="edge4" class="edge"><title>2&#45;&gt;1</title>
<path fill="none" stroke="grey" stroke-width="2" d="M167.737,-143.876C186.819,-134.469 210.679,-122.708 231.047,-112.667"/>
<polygon fill="grey" stroke="grey" points="232.708,-115.751 240.129,-108.19 229.612,-109.472 232.708,-115.751"/>
</g>
<!-- 3 -->
<g id="node4" class="node"><title>3</title>
<polyline fill="none" stroke="#78d856" stroke-width="2" points="538,-180 296,-180 "/>
<path fill="none" stroke="#78d856" stroke-width="2" d="M296,-180C290,-180 284,-174 284,-168"/>
<polyline fill="none" stroke="#78d856" stroke-width="2" points="284,-168 284,-156 "/>
<path fill="none" stroke="#78d856" stroke-width="2" d="M284,-156C284,-150 290,-144 296,-144"/>
<polyline fill="none" stroke="#78d856" stroke-width="2" points="296,-144 538,-144 "/>
<path fill="none" stroke="#78d856" stroke-width="2" d="M538,-144C544,-144 550,-150 550,-156"/>
<polyline fill="none" stroke="#78d856" stroke-width="2" points="550,-156 550,-168 "/>
<path fill="none" stroke="#78d856" stroke-width="2" d="M550,-168C550,-174 544,-180 538,-180"/>
<text text-anchor="middle" x="417" y="-165" font-family="sans" font-size="10.00">call_clipper</text>
<text text-anchor="middle" x="417" y="-154" font-family="sans" font-size="10.00">sample_label: Dan_multiplex1_K562_rep1_RBFOX2</text>
</g>
<!-- 3&#45;&gt;1 -->
<g id="edge6" class="edge"><title>3&#45;&gt;1</title>
<path fill="none" stroke="grey" stroke-width="2" d="M382.263,-143.876C363.181,-134.469 339.321,-122.708 318.953,-112.667"/>
<polygon fill="grey" stroke="grey" points="320.388,-109.472 309.871,-108.19 317.292,-115.751 320.388,-109.472"/>
</g>
</g>
</svg>
